<svg width="234" height="67" viewBox="0 0 282 81" fill="none" xmlns="http://www.w3.org/2000/svg">
<g clip-path="url(#clip0)">
<path d="M37.3063 40.6958C38.0896 40.6958 38.6771 41.3812 38.6771 42.0667C38.6771 42.5562 38.3834 43.0458 37.9917 43.1438V46.375L35.7396 48.8229V53.3271C35.7396 53.7188 35.348 54.1104 34.9563 54.1104C34.5646 54.1104 34.173 53.7188 34.173 53.3271V48.5292C34.173 48.4313 34.173 48.4313 34.173 48.3333C34.173 48.3333 34.173 48.3333 34.2709 48.2354L36.3271 46.1792V43.4375C35.9355 43.1438 35.6417 42.7521 35.6417 42.3604C35.9355 41.2833 36.6209 40.6958 37.3063 40.6958ZM29.8646 0.941666C26.5355 2.11667 23.3042 3.87917 20.6605 6.22917C17.8209 8.775 15.4709 11.9083 14.0021 15.4333C13.023 17.6854 12.4355 20.0354 12.1417 22.3854C11.4563 28.9458 14.1 34.7229 19.0938 39.0313C19.8771 39.7167 20.5625 40.3042 21.248 40.9896C21.7375 41.5771 22.2271 41.9688 22.423 42.7521C22.423 42.7521 22.423 42.85 22.5209 42.85C22.2271 43.2417 21.9334 43.6333 21.6396 43.8292C21.6396 43.5354 21.5417 43.2417 21.4438 43.0458C21.248 42.4583 20.8563 42.0667 20.4646 41.675C19.7792 40.9896 19.0938 40.4021 18.3105 39.8146C13.023 35.2125 10.2813 29.2396 10.9667 22.1896C11.2605 19.6437 11.9459 17.2937 12.8271 14.9437C15.373 9.55833 18.7021 5.73958 23.8917 2.80208C16.9396 5.05417 6.07087 12.0062 4.21045 21.7C4.11254 21.5042 3.81879 21.0146 3.62295 20.7208C0.881285 26.7917 -0.391631 36.3875 2.64379 41.2833C2.1542 41.0875 1.76254 40.8917 1.66462 40.5979C2.44795 44.2208 3.72087 50.5854 9.10629 50.4875C7.83337 50.7813 6.36462 50.7813 5.48337 50.5854C6.75629 52.9354 8.91045 56.1667 12.0438 55.9708C11.5542 56.3625 10.575 56.6563 9.98754 56.7542C10.9667 57.8313 12.8271 60.0833 15.8625 59.6917C15.4709 60.0833 14.8834 60.2792 14.0021 60.3771C15.373 61.4542 16.8417 62.4333 18.5063 63.2167C18.7021 63.7063 18.9959 64.1958 19.1917 64.6854C16.6459 63.5104 14.2959 61.8458 12.1417 59.9854C12.4355 59.9854 12.6313 59.9854 12.8271 59.8875C10.4771 59.0063 9.40004 57.3417 8.32295 56.1667C8.6167 56.1667 8.81254 56.1667 9.00837 56.0688C6.56045 54.8938 4.89587 51.5646 3.81879 49.5083C4.11254 49.6063 4.60212 49.6063 4.79795 49.5083C1.95837 46.7667 0.979202 42.3604 0.391702 38.7375C0.587535 38.8354 0.685452 38.9333 0.783369 38.9333C-0.391632 33.6458 -0.195798 26.5958 3.62295 18.7625C3.72087 18.9583 3.81879 19.0562 4.01462 19.1542C7.63754 8.775 18.6042 1.82292 29.8646 0.941666ZM44.3563 74.7708C43.7688 75.1625 43.2792 75.5542 43.0834 76.2396C42.2021 76.7292 41.6146 77.0229 40.3417 77.2188C41.5167 77.4146 42.6917 77.3167 43.8667 77.0229C43.8667 76.2396 44.0625 75.3583 44.3563 74.7708ZM47.098 71.4417C47.098 71.8333 47.098 72.3229 47.098 72.5187C46.7063 72.8125 46.0209 73.1063 45.3355 73.2042C46.5105 73.4 47.6855 73.3021 48.6646 72.8125C47.9792 72.5188 47.5875 72.225 47.098 71.4417ZM44.65 74.1833C46.5105 74.7708 48.6646 74.7708 50.7209 73.2042C48.9584 72.225 47.4896 70.7563 46.5105 68.9938L47.3917 68.2104C48.3709 70.3646 50.2313 71.9313 52.5813 72.9104C51.1125 74.7708 48.6646 75.75 46.6084 75.6521C45.825 76.5333 45.6292 78.1 46.3146 79.0792C42.4959 79.5688 40.2438 80.1563 37.698 78.1L37.8938 76.925C38.873 77.6104 39.4605 78.1 40.6355 78.2958C41.4188 78.3938 42.2021 78.3938 42.9855 78.2958C43.6709 78.1979 44.1605 78.1 44.8459 78.1C44.748 77.1208 44.9438 75.9458 45.6292 75.2604C45.2375 74.7708 44.8459 74.575 44.65 74.1833ZM23.7938 74.7708C24.3813 75.1625 24.8709 75.5542 25.0667 76.2396C25.948 76.7292 26.5355 77.0229 27.8084 77.2188C26.6334 77.4146 25.4584 77.3167 24.2834 77.0229C24.2834 76.2396 24.0875 75.3583 23.7938 74.7708ZM21.0521 71.4417C21.0521 71.8333 21.0521 72.3229 21.0521 72.5187C21.4438 72.8125 22.1292 73.1063 22.8146 73.2042C21.6396 73.4 20.4646 73.3021 19.4855 72.8125C20.1709 72.5188 20.5625 72.225 21.0521 71.4417ZM23.5 74.1833C21.6396 74.7708 19.4855 74.7708 17.4292 73.2042C19.1917 72.225 20.6605 70.7563 21.6396 68.9938L20.7584 68.2104C19.7792 70.3646 17.9188 71.9313 15.5688 72.9104C17.0375 74.7708 19.4855 75.75 21.5417 75.6521C22.325 76.5333 22.5209 78.1 21.8355 79.0792C25.6542 79.5688 27.9063 80.1563 30.4521 78.1L30.2563 76.925C29.2771 77.6104 28.6896 78.1 27.5146 78.2958C26.7313 78.3938 25.948 78.3938 25.1646 78.2958C24.4792 78.1979 23.9896 78.1 23.3042 78.1C23.4021 77.1208 23.2063 75.9458 22.5209 75.2604C23.0105 74.7708 23.3042 74.575 23.5 74.1833ZM45.6292 42.85C45.923 43.2417 46.2167 43.6333 46.5105 43.8292C46.5105 43.5354 46.6084 43.2417 46.7063 43.0458C46.9021 42.4583 47.2938 42.0667 47.6855 41.675C48.3709 40.9896 49.0563 40.4021 49.8396 39.8146C55.1271 35.2125 57.8688 29.2396 57.1834 22.1896C56.8896 19.6437 56.2042 17.2937 55.323 14.9437C52.7771 9.46042 49.448 5.64167 44.2584 2.80208C51.2105 5.05417 62.1771 11.9083 64.0375 21.6021C64.1355 21.4062 64.4292 20.9167 64.625 20.6229C67.3667 26.6937 68.5417 36.3875 65.6042 41.1854C66.0938 40.9896 66.4855 40.7938 66.5834 40.5C65.8 44.1229 64.5271 50.4875 59.1417 50.3896C60.4146 50.6833 61.8834 50.6833 62.7646 50.4875C61.4917 52.8375 59.3375 56.0688 56.2042 55.8729C56.6938 56.2646 57.673 56.5583 58.2605 56.6563C57.2813 57.7333 55.4209 59.9854 52.3855 59.5938C52.7771 59.9854 53.3646 60.1813 54.2459 60.2792C52.875 61.3563 51.4063 62.3354 49.7417 63.1188C49.5459 63.6083 49.2521 64.0979 49.0563 64.5875C51.6021 63.4125 53.9521 61.7479 56.1063 59.8875C55.8125 59.8875 55.6167 59.8875 55.4209 59.7896C57.7709 58.9083 58.848 57.2438 59.925 56.0688C59.6313 56.0688 59.4355 56.0688 59.2396 55.9708C61.6875 54.7958 63.3521 51.4667 64.4292 49.4104C64.1355 49.5083 63.6459 49.5083 63.45 49.4104C66.2896 46.6687 67.2688 42.2625 67.8563 38.6396C67.6605 38.7375 67.5625 38.8354 67.4646 38.8354C68.6396 33.5479 68.4438 26.4979 64.625 18.6646C64.5271 18.8604 64.4292 18.9583 64.2334 19.0562C60.6105 8.775 49.6438 1.82292 38.2855 0.941666C41.6146 2.11667 44.8459 3.87917 47.4896 6.22917C50.3292 8.775 52.6792 11.9083 54.148 15.4333C55.1271 17.6854 55.7146 20.0354 56.0084 22.3854C56.6938 28.9458 54.05 34.7229 49.0563 39.0313C48.273 39.7167 47.5875 40.3042 46.9021 40.9896C46.4125 41.5771 46.0209 42.0667 45.6292 42.85C45.7271 42.7521 45.7271 42.7521 45.6292 42.85ZM32.9 35.1146C31.823 34.7229 31.4313 33.6458 31.9209 32.3729C31.9209 33.2542 32.2146 33.8417 32.9 34.1354C33.5855 33.6458 33.7813 33.0583 33.5855 32.1771C34.075 33.45 33.8792 34.7229 32.9 35.1146ZM40.9292 29.925C40.3417 29.6312 39.8521 29.5333 39.2646 29.5333C38.9709 29.5333 38.6771 29.3375 38.775 28.75C38.1875 30.0229 37.9917 30.8062 36.3271 30.4146C35.348 30.2187 34.9563 31.0021 35.1521 31.7854C35.25 32.275 35.4459 32.9604 34.9563 33.45C34.7605 32.6667 34.2709 32.3729 33.8792 32.0792C34.7605 33.2542 34.3688 34.0375 34.173 34.4292C36.1313 34.0375 36.1313 35.6042 35.8375 36.3875C36.3271 36.3875 36.8167 36.4854 37.1105 36.4854C36.6209 34.9188 36.2292 33.3521 36.1313 31.6875C36.1313 31.3937 36.1313 31.2958 36.3271 31.3937C37.4042 31.5896 38.4813 31.3937 39.1667 30.4146C40.2438 30.3167 41.125 30.7083 42.0063 31.2958C42.2021 29.5333 42.3 27.8687 40.1459 27.1833C39.8521 26.2042 39.0688 25.8125 37.9917 25.9104C36.6209 23.7562 31.6271 26.0083 29.6688 24.6375C28.9834 24.1479 28.7875 23.3646 28.6896 22.5812C28.0042 23.2667 27.5146 23.6583 27.2209 24.6375C26.7313 25.9104 27.025 27.4771 27.9063 28.6521C28.4938 29.4354 29.2771 29.925 30.1584 30.1208C30.0605 30.2187 29.9625 30.3167 29.9625 30.4146C28.8855 32.1771 28.9834 34.8208 28.9834 36.8771C29.2771 36.7792 29.6688 36.7792 29.9625 36.6812C29.6688 35.7021 29.9625 34.625 31.3334 34.5271C31.1375 34.1354 30.8438 33.45 31.6271 32.1771C31.1375 32.3729 30.648 32.8625 30.55 33.5479C30.1584 32.9604 30.1584 32.4708 30.3542 31.9812C30.4521 31.6875 30.55 31.4917 30.648 31.2958V31.1979C31.6271 29.3375 34.9563 30.5125 35.8375 27.6729C35.5438 28.0646 35.1521 28.3583 34.8584 28.5542C34.2709 28.8479 33.8792 27.6729 33.0959 27.6729C33.3896 27.8687 33.4875 28.2604 33.4875 28.6521C33.3896 29.0437 33.1938 29.1417 32.9 28.8479C32.6063 28.5542 32.4105 27.9667 31.9209 27.8687C32.2146 28.1625 32.2146 28.5542 32.1167 28.8479C32.0188 29.2396 31.725 29.4354 31.4313 29.0437C31.2355 28.8479 31.1375 28.4562 30.8438 28.2604C30.9417 28.75 30.4521 29.2396 29.8646 28.9458C28.9834 28.5542 28.4938 27.9667 28.1021 27.1833C27.8084 26.3021 27.8084 25.4208 28.2 24.6375C28.2 24.6375 28.2 24.6375 28.2 24.5396C29.9625 27.7708 36.3271 24.6375 37.1105 26.6937L37.2084 27.0854H37.6C38.2855 26.9875 38.9709 26.9875 39.0688 27.8687V28.2604L39.3625 28.3583C40.4396 28.3583 40.9292 29.0437 40.9292 29.925ZM30.8438 36.5833C31.0396 36.1917 31.3334 35.9958 31.5292 35.8C31.4313 36.0938 31.3334 36.2896 31.2355 36.5833C31.0396 36.5833 31.0396 36.5833 30.8438 36.5833ZM34.7605 36.4854C34.6625 36.1917 34.3688 35.8 34.075 35.5063C34.5646 35.6042 35.0542 35.8979 35.348 36.4854C35.1521 36.4854 34.8584 36.4854 34.7605 36.4854ZM31.823 36.4854C31.823 36.2896 31.9209 36.0938 31.9209 35.8979C31.9209 36.0938 31.9209 36.2896 32.0188 36.3875L31.823 36.4854ZM33.7813 36.4854C33.7813 36.2896 33.6834 35.9958 33.6834 35.7021C33.8792 35.9958 33.9771 36.1917 34.075 36.4854H33.7813ZM10.1834 25.8125C9.98754 31.8833 12.5334 36.975 17.8209 41.8708C18.898 43.0458 18.9959 44.4167 19.3875 45.5917C19.5834 45.4938 19.7792 45.3958 19.975 45.2C19.8771 44.6125 19.8771 44.2208 19.7792 43.8292C20.073 44.025 20.2688 44.4167 20.4646 44.9063C20.6605 44.8083 20.7584 44.6125 20.9542 44.5146C20.9542 44.3187 20.8563 44.1229 20.8563 43.9271C20.8563 43.7313 20.7584 43.4375 20.6605 43.2417C20.2688 42.2625 18.6042 40.9896 17.8209 40.4021C13.3167 36.6813 10.4771 31.5896 10.1834 25.8125ZM10.3792 34.9188C4.01462 29.2396 5.58129 19.2521 10.4771 15.1396C9.88962 17.4896 9.7917 19.8396 10.0855 22.1896C10.3792 19.5458 11.0646 17.0979 12.0438 14.65C13.2188 11.8104 14.9813 9.06875 17.2334 6.62083C12.4355 9.65625 7.4417 14.3562 5.58129 19.6437C4.11254 24.4417 4.79795 31.4917 10.3792 34.9188ZM3.3292 24.6375C0.587535 33.45 1.46879 44.3188 9.88962 41.9688C4.70004 42.1646 2.83962 38.9333 3.3292 31.6875C4.60212 34.8208 7.4417 36.4854 9.98754 37.3667C5.97295 34.5271 3.52504 31.2958 3.3292 24.6375ZM3.23129 43.1438C4.5042 49.7042 8.81254 49.9979 11.3584 47.6479C8.42087 49.2146 6.36462 47.8438 5.38545 45.5917C7.83337 45.7875 9.00837 45.1021 10.1834 44.1229C8.12712 44.7104 5.87504 44.8083 3.23129 43.1438ZM7.34379 51.8583C10.3792 56.5583 13.6105 54.3063 14.3938 52.6417C13.023 53.8167 10.9667 54.0125 9.88962 52.7396C11.1625 52.1521 12.1417 51.1729 12.6313 50.0958C11.0646 51.3688 9.30212 51.8583 7.34379 51.8583ZM15.5688 53.8167C14.6875 55.5792 13.4146 56.6563 11.75 57.1458C13.3167 58.9083 15.8625 59.2021 16.8417 57.8313C16.8417 57.5375 16.7438 57.3417 16.7438 57.0479C16.0584 57.8313 15.0792 58.0271 14.0021 57.3417C14.8834 56.2646 15.373 55.1875 15.5688 53.8167ZM17.723 61.0625C17.625 60.6708 17.5271 60.2792 17.4292 60.0833C17.0375 60.5729 16.6459 60.7688 16.1563 60.8667C16.8417 61.2583 17.4292 61.2583 17.723 61.0625ZM10.8688 36.8771C9.7917 42.85 12.7292 42.1646 14.4917 41.9688C12.8271 41.675 11.4563 40.9896 11.5542 39.2271C12.4355 39.8146 13.6105 40.0104 14.4917 40.0104C12.3375 39.1292 11.3584 37.4646 10.8688 36.8771ZM10.9667 42.85C10.8688 48.1375 14.1 46.8646 15.275 45.6896C13.7084 46.2771 12.4355 45.9833 12.3375 44.5146C13.6105 44.6125 14.4917 44.025 15.0792 43.5354C12.5334 44.2208 11.5542 43.3396 10.9667 42.85ZM12.2396 48.1375C13.7084 51.8583 15.373 50.8792 16.3521 49.5083C16.3521 49.3125 16.3521 49.2146 16.3521 49.0188C15.373 49.9 14.3938 49.9979 14.0021 49.1167C15.1771 48.5292 15.6667 47.6479 15.8625 46.8646C14.1 48.5292 12.8271 48.2354 12.2396 48.1375ZM14.4917 51.8583C15.275 52.9354 15.8625 53.5229 16.3521 53.8167C16.2542 53.0333 16.2542 52.25 16.2542 51.4667C15.5688 51.9563 14.8834 51.8583 14.4917 51.8583ZM15.275 41.9688C15.373 45.8854 17.2334 45.1021 18.2125 44.7104C17.2334 44.8083 16.1563 44.6125 16.1563 43.4375C16.8417 43.6333 17.3313 43.5354 17.9188 43.4375C16.45 43.1438 15.5688 42.2625 15.275 41.9688ZM15.9605 45.7875C16.1563 46.4729 16.3521 46.8646 16.548 47.2563V46.9625L17.0375 46.7667C17.0375 46.6688 17.0375 46.6688 16.9396 46.5708C17.8209 46.375 18.1146 45.8854 18.4084 45.4937C17.0375 46.2771 16.2542 45.9833 15.9605 45.7875ZM8.6167 19.8396C7.05004 22.7771 6.75629 28.75 10.2813 32.9604C9.40004 31.8833 8.22504 27.9667 8.71462 24.7354C8.32295 23.4625 8.22504 21.7 8.6167 19.8396ZM4.70004 36.4854C5.28754 39.1292 6.65837 40.6958 9.2042 40.7938C8.22504 40.3042 7.34379 39.8146 6.8542 39.1292C7.53962 39.2271 8.22504 39.2271 9.00837 38.9333C7.24587 38.6396 5.87504 37.6604 4.70004 36.4854ZM8.22504 46.6688C8.91045 47.2563 9.69379 47.3542 10.575 46.9625C10.2813 46.9625 9.98754 46.8646 9.7917 46.6688C9.98754 46.4729 10.0855 46.1792 10.0855 45.9833C9.59587 46.4729 8.81254 46.6688 8.22504 46.6688ZM11.75 52.5438C12.4355 52.6417 13.1209 52.7396 13.7084 52.0542C13.4146 52.1521 13.2188 52.1521 13.023 52.0542C13.1209 51.7604 13.1209 51.4667 13.023 51.1729C12.8271 51.7604 12.3375 52.25 11.75 52.5438ZM15.373 56.6563C15.8625 56.5583 16.3521 56.3625 16.548 55.9708C16.548 55.8729 16.548 55.775 16.548 55.5792C16.45 55.5792 16.3521 55.6771 16.2542 55.5792C16.2542 55.3833 16.0584 54.9917 15.8625 54.7958C15.9605 55.5792 15.7646 56.1667 15.373 56.6563ZM58.0646 25.8125C58.2605 31.8833 55.7146 36.975 50.4271 41.8708C49.35 43.0458 49.2521 44.4167 48.8605 45.5917C48.6646 45.4938 48.4688 45.3958 48.273 45.2C48.3709 44.6125 48.3709 44.2208 48.4688 43.8292C48.175 44.025 47.9792 44.4167 47.7834 44.9063C47.5875 44.8083 47.4896 44.6125 47.2938 44.5146C47.2938 44.3187 47.3917 44.1229 47.3917 43.9271C47.3917 43.7313 47.4896 43.4375 47.5875 43.2417C47.9792 42.2625 49.6438 40.9896 50.4271 40.4021C54.9313 36.6813 57.575 31.5896 58.0646 25.8125ZM57.673 34.9188C64.1355 29.1417 62.4709 19.1542 57.575 15.0417C58.1625 17.3917 58.2605 19.7417 57.9667 22.0917C57.673 19.4479 56.9875 17 56.0084 14.5521C54.8334 11.7125 53.0709 8.97083 50.8188 6.52292C55.6167 9.55833 60.6105 14.2583 62.4709 19.5458C64.1355 24.4417 63.3521 31.4917 57.673 34.9188ZM64.8209 24.6375C67.5625 33.45 66.6813 44.3188 58.2605 41.9688C63.45 42.1646 65.3104 38.9333 64.8209 31.6875C63.5479 34.8208 60.7084 36.4854 58.1625 37.3667C62.1771 34.5271 64.625 31.2958 64.8209 24.6375ZM64.9188 43.1438C63.6459 49.7042 59.3375 49.9979 56.7917 47.6479C59.7292 49.2146 61.7855 47.8438 62.7646 45.5917C60.3167 45.7875 59.1417 45.1021 57.9667 44.1229C60.1209 44.7104 62.373 44.8083 64.9188 43.1438ZM60.8063 51.8583C57.7709 56.5583 54.5396 54.3063 53.7563 52.6417C55.1271 53.8167 57.1834 54.0125 58.2605 52.7396C56.9875 52.1521 56.0084 51.1729 55.5188 50.0958C57.1834 51.3688 58.9459 51.8583 60.8063 51.8583ZM52.6792 53.8167C53.5605 55.4813 54.8334 56.6563 56.498 57.0479C54.9313 58.8104 52.3855 59.1042 51.4063 57.7333C51.4063 57.4396 51.5042 57.2438 51.5042 56.95C52.1896 57.7333 53.1688 57.9292 54.2459 57.2438C53.3646 56.2646 52.875 55.1875 52.6792 53.8167ZM50.525 61.0625C50.623 60.6708 50.7209 60.2792 50.8188 60.0833C51.2105 60.5729 51.6021 60.7688 52.0917 60.8667C51.3084 61.2583 50.8188 61.2583 50.525 61.0625ZM57.2813 36.8771C58.3584 42.85 55.4209 42.1646 53.6584 41.9688C55.323 41.675 56.6938 40.9896 56.5959 39.2271C55.8125 39.9125 54.5396 40.0104 53.6584 40.0104C55.8125 39.1292 56.7917 37.4646 57.2813 36.8771ZM57.1834 42.85C57.2813 48.1375 54.05 46.8646 52.875 45.6896C54.4417 46.2771 55.7146 45.9833 55.8125 44.5146C54.5396 44.6125 53.6584 44.025 53.0709 43.5354C55.5188 44.2208 56.6938 43.3396 57.1834 42.85ZM55.9105 48.1375C54.4417 51.8583 52.7771 50.8792 51.798 49.5083C51.798 49.3125 51.798 49.2146 51.798 49.0188C52.7771 49.9 53.7563 49.9979 54.148 49.1167C52.973 48.5292 52.4834 47.6479 52.2875 46.8646C53.9521 48.5292 55.323 48.2354 55.9105 48.1375ZM53.6584 51.8583C52.875 52.9354 52.2875 53.5229 51.798 53.8167C51.8959 53.0333 51.8959 52.25 51.8959 51.4667C52.5813 51.9563 53.2667 51.8583 53.6584 51.8583ZM52.973 41.9688C52.875 45.8854 51.0146 45.1021 50.0355 44.7104C51.0146 44.8083 52.0917 44.6125 52.0917 43.4375C51.4063 43.6333 50.9167 43.5354 50.3292 43.4375C51.798 43.1438 52.5813 42.2625 52.973 41.9688ZM52.2875 45.7875C52.0917 46.4729 51.8959 46.8646 51.7 47.2563V46.9625L51.1125 46.7667C51.1125 46.6688 51.1125 46.6688 51.2105 46.5708C50.3292 46.375 50.0355 45.8854 49.7417 45.4937C51.1125 46.2771 51.8959 45.9833 52.2875 45.7875ZM59.4355 19.8396C61.0021 22.7771 61.2959 28.75 57.7709 32.9604C58.6521 31.8833 59.8271 27.9667 59.3375 24.7354C59.8271 23.4625 60.023 21.7 59.4355 19.8396ZM63.3521 36.4854C62.7646 39.1292 61.3938 40.6958 58.848 40.7938C59.8271 40.3042 60.7084 39.8146 61.198 39.1292C60.5125 39.2271 59.8271 39.2271 59.0438 38.9333C61.0021 38.6396 62.3729 37.6604 63.3521 36.4854ZM60.023 46.6688C59.3375 47.2563 58.5542 47.3542 57.673 46.9625C57.9667 46.9625 58.2605 46.8646 58.4563 46.6688C58.2605 46.4729 58.1625 46.1792 58.1625 45.9833C58.6521 46.4729 59.3375 46.6688 60.023 46.6688ZM56.498 52.5438C55.8125 52.6417 55.1271 52.7396 54.5396 52.0542C54.8334 52.1521 55.0292 52.1521 55.225 52.0542C55.1271 51.7604 55.1271 51.4667 55.225 51.1729C55.323 51.7604 55.8125 52.25 56.498 52.5438ZM52.875 56.6563C52.3855 56.5583 51.8959 56.3625 51.7 55.9708C51.7 55.8729 51.7 55.775 51.7 55.5792C51.798 55.5792 51.8959 55.6771 51.9938 55.5792C51.9938 55.3833 52.1896 54.9917 52.3855 54.7958C52.1896 55.5792 52.3855 56.1667 52.875 56.6563ZM34.173 26.4979C35.4459 27.1833 36.425 26.5958 37.1105 26.9875C37.698 27.2812 37.9917 28.3583 37.2084 28.5542C37.2084 27.9667 36.7188 28.0646 36.425 28.0646C36.1313 28.0646 35.8375 27.7708 35.8375 27.4771C35.8375 27.3792 35.8375 27.2812 35.9355 27.1833C35.348 27.2812 34.6625 27.1833 34.173 26.4979ZM28.8855 26.2042C28.7875 27.1833 29.1792 27.8687 29.9625 28.3583C29.7667 27.9667 29.6688 27.575 29.5709 27.1833C30.9417 27.3792 32.4105 27.0854 33.6834 26.4979C31.823 26.9875 30.2563 26.7917 28.8855 26.2042ZM44.8459 59.7896C45.6292 60.1813 46.3146 60.1813 47.098 59.9854C47.8813 59.7896 48.4688 59.3979 48.9584 58.8104C49.6438 58.0271 49.8396 57.1458 49.7417 56.2646C49.6438 55.5792 49.35 54.8938 48.8605 54.3063C49.0563 53.9146 49.1542 53.5229 49.2521 53.1313C49.35 52.3479 49.35 51.6625 49.0563 50.9771C48.7625 50.2917 48.3709 49.8021 47.8813 49.2146C47.2938 48.725 46.6084 48.4313 45.923 48.2354C45.1396 48.1375 44.4542 48.2354 43.7688 48.4312C43.2792 48.6271 42.7896 48.9208 42.4959 49.2146C41.8105 48.8229 41.223 48.725 40.5375 48.8229C39.6563 48.9208 38.775 49.3125 38.1875 49.9979C37.698 50.5854 37.4042 51.2708 37.3063 52.0542C37.3063 52.8375 37.5021 53.5229 37.9917 54.2083C38.1875 54.6 38.6771 54.6 38.9709 54.4042C39.3625 54.2083 39.3625 53.7188 39.1667 53.425C38.873 53.0333 38.775 52.5438 38.775 52.25C38.775 51.7604 38.9709 51.3688 39.2646 51.075C39.6563 50.5854 40.1459 50.3896 40.6355 50.2917C40.9292 50.2917 41.3209 50.2917 41.6146 50.3896C41.4188 50.7812 41.223 51.2708 41.125 51.5646C41.0271 51.9563 41.3209 52.3479 41.7125 52.4458C42.1042 52.5438 42.4959 52.25 42.5938 51.8583C42.6917 51.3688 42.8875 50.8792 43.1813 50.6833C43.475 50.2917 43.9646 49.9979 44.2584 49.8021C44.748 49.6063 45.2375 49.6063 45.6292 49.7042C46.1188 49.8021 46.5105 49.9979 46.8042 50.2917C47.1959 50.5854 47.4896 51.075 47.6855 51.3688C47.8813 51.8583 47.8813 52.3479 47.7834 52.7396C47.6855 53.2292 47.4896 53.7188 47.1959 54.0125C46.9021 54.3063 46.5105 54.6979 46.1188 54.7958C45.7271 54.8938 45.5313 55.3833 45.6292 55.775C45.7271 56.1667 46.2167 56.3625 46.6084 56.2646C47.1959 56.0688 47.5875 55.775 47.8813 55.3833C48.0771 55.6771 48.175 55.9708 48.175 56.2646C48.273 56.8521 48.0771 57.2438 47.6855 57.7333C47.3917 58.125 47 58.3208 46.6084 58.4188C46.1188 58.5167 45.7271 58.5167 45.3355 58.3208C44.9438 58.125 44.4542 58.3208 44.3563 58.7125C44.2584 59.3 44.4542 59.6917 44.8459 59.7896ZM44.1605 61.2583C44.1605 61.5521 44.1605 61.7479 44.1605 62.0417V62.3354L42.0063 63.3146L41.9084 63.5104C41.8105 63.8042 41.7125 64.0979 41.6146 64.3917C41.5167 64.6854 41.3209 64.9792 41.223 65.2729L41.0271 65.4688L41.9084 67.6229C41.7125 67.9167 41.4188 68.2104 41.223 68.4063C40.9292 68.7 40.7334 68.8958 40.4396 69.0917L38.2855 68.2104L38.0896 68.4063C37.7959 68.5042 37.5021 68.7 37.2084 68.7979C36.9146 68.8958 36.6209 68.9937 36.3271 69.0917L35.9355 69.1896L34.9563 71.3438H34.6625C34.4667 71.3438 34.173 71.3438 33.8792 71.3438C33.5855 71.3438 33.3896 71.3438 33.0959 71.3438H32.8021L31.823 69.1896L31.4313 69.0917C31.1375 68.9937 30.8438 68.8958 30.55 68.7979C30.2563 68.7 29.9625 68.5042 29.6688 68.4063L29.375 68.2104L27.2209 69.0917C26.9271 68.8958 26.6334 68.6021 26.4375 68.4063C26.1438 68.1125 25.948 67.9167 25.7521 67.6229L26.6334 65.4688L26.5355 65.2729C26.4375 64.9792 26.2417 64.6854 26.1438 64.3917C26.0459 64.0979 25.948 63.8042 25.85 63.5104L25.7521 63.1188L23.598 62.1396V61.8458C23.598 61.65 23.598 61.3563 23.598 61.0625C23.598 60.6708 23.2063 60.2792 22.8146 60.2792C22.423 60.2792 22.0313 60.6708 22.0313 61.0625C22.0313 61.3563 22.0313 61.65 22.0313 61.9438C22.0313 62.2375 22.1292 62.5313 22.1292 62.825L22.2271 63.2167L24.4792 64.1958C24.5771 64.3917 24.675 64.6854 24.773 64.8813C24.8709 65.0771 24.9688 65.3708 25.0667 65.5667L24.0875 67.8188L24.3813 68.2104C24.773 68.7 25.0667 69.0917 25.4584 69.3854C25.85 69.7771 26.3396 70.1688 26.6334 70.4625L26.9271 70.7563L29.2771 69.7771C29.473 69.875 29.7667 69.9729 29.9625 70.0708C30.1584 70.1687 30.4521 70.2667 30.648 70.3646L31.6271 72.6167L32.0188 72.7146C32.3125 72.7146 32.6063 72.8125 32.9 72.8125C33.1938 72.8125 33.4875 72.8125 33.7813 72.8125C34.075 72.8125 34.3688 72.8125 34.6625 72.8125C34.9563 72.8125 35.25 72.7146 35.5438 72.7146L35.9355 72.6167L36.9146 70.3646C37.1105 70.2667 37.4042 70.1687 37.6 70.0708C37.7959 69.9729 38.0896 69.875 38.2855 69.7771L40.5375 70.7563L40.9292 70.4625C41.4188 70.0708 41.8105 69.7771 42.1042 69.3854C42.4959 68.9938 42.8875 68.5042 43.1813 68.2104L43.475 67.9167L42.4959 65.5667C42.5938 65.3708 42.6917 65.0771 42.7896 64.8813C42.8875 64.6854 42.9855 64.3917 43.0834 64.1958L45.3355 63.2167L45.4334 62.825C45.4334 62.5313 45.5313 62.2375 45.5313 61.9438C45.5313 61.65 45.5313 61.3563 45.5313 61.0625C45.5313 60.6708 45.1396 60.2792 44.748 60.2792C44.4542 60.6708 44.1605 60.9646 44.1605 61.2583ZM23.9896 53.7188C25.1646 49.6063 22.2271 49.9 21.248 48.0396C22.1292 49.9979 19.975 52.0542 23.9896 53.7188ZM42.4959 54.7958C42.2021 55.1875 41.9084 55.5792 41.7125 55.775C41.6146 55.9708 41.4188 56.1667 41.3209 56.2646C41.0271 56.0688 40.8313 55.9708 40.5375 55.775C40.048 55.5792 39.5584 55.3833 38.9709 55.2854C38.5792 55.1875 38.1875 55.4813 38.0896 55.8729C37.9917 56.2646 38.2855 56.6563 38.6771 56.7542C39.0688 56.8521 39.5584 56.95 39.8521 57.1458C40.048 57.2438 40.1459 57.3417 40.3417 57.4396C39.0688 58.9083 37.5021 60.2792 35.8375 61.5521C35.1521 62.1396 34.4667 62.5313 33.6834 63.0208C33.4875 62.9229 33.2917 62.7271 33.0959 62.6292C32.7042 62.4333 32.3125 62.4333 32.1167 62.825C31.9209 63.2167 31.9209 63.6083 32.3125 63.8042C31.5292 64.2938 30.7459 64.6854 29.8646 64.9792C29.473 65.175 29.2771 65.5667 29.473 65.9583C29.6688 66.35 30.0605 66.5458 30.4521 66.35C31.5292 65.8604 32.6063 65.3708 33.5855 64.7833C33.9771 64.9792 34.3688 65.2729 34.6625 65.4688C35.5438 65.9583 36.3271 66.4479 37.3063 66.7417C37.698 66.9375 38.1875 66.7417 38.2855 66.35C38.4813 65.9583 38.2855 65.4688 37.8938 65.3708C37.0125 64.9792 36.2292 64.5875 35.348 64.1958C35.25 64.0979 35.0542 64 34.9563 64C35.5438 63.6083 36.0334 63.2167 36.6209 62.9229C38.2855 61.65 39.8521 60.0833 41.3209 58.5167C41.4188 58.6146 41.5167 58.8104 41.7125 58.9083C42.0063 59.3 42.2021 59.6917 42.3 59.9854C42.398 60.2792 42.8875 60.5729 43.2792 60.475C43.6709 60.3771 43.8667 59.8875 43.7688 59.4958C43.573 59.0063 43.2792 58.5167 42.9855 58.125C42.7896 57.8313 42.5938 57.6354 42.398 57.3417C42.5938 57.1458 42.6917 56.95 42.8875 56.7542C43.1813 56.3625 43.475 55.9708 43.7688 55.6771C43.9646 55.2854 43.9646 54.8938 43.573 54.6979C43.2792 54.4042 42.7896 54.4042 42.4959 54.7958ZM32.4105 58.125C34.173 60.8667 32.0188 61.0625 31.823 62.6292C30.648 59.9854 32.2146 59.5938 32.4105 58.125ZM26.1438 62.0417C28.9834 64.6854 29.6688 62.2375 31.4313 62.3354C28.7875 60.3771 27.9063 62.1396 26.1438 62.0417ZM23.6959 59.3C26.2417 62.6292 27.4167 60.2792 29.2771 60.6708C26.8292 57.9292 25.5563 59.6917 23.6959 59.3ZM28.9834 54.6C28.8855 56.2646 27.123 56.8521 28.6896 59.6917C28.7875 58.0271 31.1375 57.5375 28.9834 54.6ZM27.6125 52.1521C27.4167 53.9146 25.4584 54.4042 26.9271 57.5375C27.3188 55.775 29.7667 55.5792 27.6125 52.1521ZM21.8355 56.5583C23.9896 60.1813 25.4584 57.8313 27.3188 58.5167C25.0667 55.5792 23.598 57.2438 21.8355 56.5583ZM20.2688 53.6208C21.8355 57.5375 23.6959 55.4813 25.3605 56.3625C23.598 53.1313 21.9334 54.5021 20.2688 53.6208ZM25.6542 49.9C25.5563 51.8583 23.598 52.5438 25.4584 55.6771C25.4584 53.7188 28.2 53.3271 25.6542 49.9ZM30.9417 56.1667C30.7459 57.8313 28.8855 58.3208 30.3542 61.2583C30.55 59.4958 32.9 59.3 30.9417 56.1667ZM31.1375 51.3688V54.9917L35.25 59.1042C35.5438 59.3979 36.0334 59.3979 36.2292 59.1042C36.523 58.8104 36.523 58.3208 36.2292 58.125L32.6063 54.5021V47.8438L34.9563 45.4937V43.3396C35.348 43.0458 35.6417 42.6542 35.6417 42.2625C35.6417 41.4792 34.9563 40.8917 34.2709 40.8917C33.5855 40.8917 32.9 41.5771 32.9 42.2625C32.9 42.7521 33.1938 43.2417 33.5855 43.3396V44.9063L31.2355 47.2563V49.4104L29.5709 47.7458V43.3396C29.9625 43.0458 30.2563 42.6542 30.2563 42.2625C30.2563 41.4792 29.5709 40.8917 28.8855 40.8917C28.2 40.8917 27.5146 41.5771 27.5146 42.2625C27.5146 42.7521 27.8084 43.2417 28.2 43.3396V48.3333L31.1375 51.3688ZM37.3063 41.675C37.0125 41.675 36.8167 41.8708 36.8167 42.1646C36.8167 42.4583 37.0125 42.6542 37.3063 42.6542C37.6 42.6542 37.7959 42.4583 37.7959 42.1646C37.7959 41.8708 37.5021 41.675 37.3063 41.675ZM34.173 41.675C33.8792 41.675 33.6834 41.8708 33.6834 42.1646C33.6834 42.4583 33.8792 42.6542 34.173 42.6542C34.4667 42.6542 34.6625 42.4583 34.6625 42.1646C34.6625 41.8708 34.4667 41.675 34.173 41.675ZM28.7875 41.675C28.4938 41.675 28.298 41.8708 28.298 42.1646C28.298 42.4583 28.4938 42.6542 28.7875 42.6542C29.0813 42.6542 29.2771 42.4583 29.2771 42.1646C29.2771 41.8708 29.0813 41.675 28.7875 41.675Z" fill="white"/>
<path d="M34.075 80.0583C47.4896 73.5958 55.0292 63.1188 52.9729 45.7875C48.2729 44.6125 45.4334 41.7729 45.0417 37.0729C41.8104 35.7021 38.0896 34.9187 34.075 34.9187C30.0604 34.9187 26.3396 35.6042 23.1084 37.0729C22.6188 41.7729 19.8771 44.6125 15.1771 45.7875C13.1209 63.1188 20.6604 73.6937 34.075 80.0583ZM25.2625 38.6396C28.1021 37.6604 31.1375 37.1708 34.1729 37.1708C37.1104 37.1708 40.2438 37.6604 43.0834 38.6396C43.9646 43.1437 46.8042 45.9833 51.0146 47.4521C52.1896 61.5521 46.7063 71.2458 34.2709 77.6104C21.7375 71.2458 16.1563 61.5521 17.5271 47.55C21.5417 46.0812 24.3813 43.1437 25.2625 38.6396Z" fill="#6CAF60"/>
<path fill-rule="evenodd" clip-rule="evenodd" d="M79.5084 26.8896L80.7813 21.4063H81.8584L79.9 28.9458C79.8021 29.5333 79.6063 29.925 79.4105 30.2188C79.2146 30.5125 79.1167 30.8063 78.9209 30.9042C78.725 31.1 78.5292 31.1979 78.4313 31.1979C78.2355 31.1979 78.0396 31.2958 77.8438 31.2958H77.3542V30.4146H77.8438C78.0396 30.4146 78.2355 30.3167 78.4313 30.1208C78.6271 29.925 78.725 29.6313 78.823 29.1417L79.0188 28.5542L76.8646 21.4063H77.9417L79.5084 26.8896ZM78.5292 19.4479C78.5292 19.5458 78.5292 19.6438 78.6271 19.7417C78.6271 19.8396 78.725 19.9375 78.823 20.0354C78.9209 20.1333 79.0188 20.2313 79.1167 20.2313C79.2146 20.3292 79.3125 20.3292 79.5084 20.3292C79.7042 20.3292 79.8021 20.3292 79.9 20.2313C79.998 20.1333 80.0959 20.1333 80.1938 20.0354C80.2917 19.9375 80.3896 19.8396 80.3896 19.7417C80.3896 19.6438 80.4875 19.5458 80.4875 19.4479H81.3688C81.3688 19.6438 81.2709 19.8396 81.2709 20.0354C81.173 20.2313 81.075 20.4271 80.9771 20.6229C80.7813 20.8188 80.6834 20.9167 80.3896 21.0146C80.1938 21.1125 79.9 21.2104 79.6063 21.2104C79.2146 21.2104 78.9209 21.1125 78.725 21.0146C78.5292 20.9167 78.3334 20.7208 78.1375 20.6229C78.0396 20.4271 77.8438 20.2313 77.8438 20.0354C77.7459 19.8396 77.7459 19.6438 77.7459 19.4479H78.5292ZM84.3063 21.3083C84.698 21.3083 84.9917 21.3083 85.2855 21.4063C85.5792 21.5042 85.775 21.6021 85.9709 21.7979C86.1667 21.9938 86.3625 22.2875 86.4605 22.5813C86.5584 22.875 86.6563 23.3646 86.6563 23.8542C86.6563 24.05 86.6563 24.2458 86.6563 24.4417C86.6563 24.6375 86.5584 24.8333 86.5584 25.1271C86.4605 25.3229 86.3625 25.5188 86.2646 25.7146C86.1667 25.9104 85.9709 26.0083 85.873 26.1063C86.0688 26.2042 86.2646 26.4 86.3625 26.4979C86.4605 26.6938 86.5584 26.8896 86.6563 27.0854C86.7542 27.2813 86.7542 27.4771 86.7542 27.6729C86.7542 27.8688 86.7542 28.0646 86.7542 28.3583C86.7542 29.3375 86.5584 30.0229 86.2646 30.5125C85.873 31.0021 85.2855 31.2958 84.5021 31.2958C84.2084 31.2958 83.9146 31.2958 83.6209 31.1979C83.3271 31.1 83.1313 31.0021 82.9355 30.8063C82.7396 30.6104 82.5438 30.4146 82.4459 30.1208C82.348 29.8271 82.348 29.5333 82.348 29.1417L83.425 28.9458C83.425 29.4354 83.523 29.8271 83.7188 30.0229C83.9146 30.2188 84.2084 30.3167 84.6 30.3167C84.7959 30.3167 84.8938 30.3167 84.9917 30.2188C85.0896 30.1208 85.2855 30.0229 85.3834 29.925C85.4813 29.8271 85.5792 29.6313 85.5792 29.3375C85.6771 29.1417 85.6771 28.75 85.6771 28.3583C85.6771 28.1625 85.6771 27.8688 85.5792 27.6729C85.5792 27.4771 85.4813 27.2813 85.3834 27.0854C85.2855 26.8896 85.1875 26.7917 85.0896 26.6938C84.9917 26.5958 84.7959 26.5958 84.6 26.5958H84.0125V25.6167H84.698C84.8938 25.6167 85.0896 25.6167 85.1875 25.5188C85.2855 25.4208 85.4813 25.3229 85.4813 25.1271C85.5792 24.9313 85.5792 24.7354 85.6771 24.5396C85.6771 24.3438 85.775 24.05 85.775 23.8542C85.775 23.5604 85.775 23.2667 85.6771 23.0708C85.5792 22.875 85.5792 22.6792 85.3834 22.5813C85.2855 22.4833 85.1875 22.3854 84.9917 22.3854C84.8938 22.3854 84.698 22.2875 84.5021 22.2875C84.1105 22.2875 83.8167 22.3854 83.6209 22.6792C83.425 22.9729 83.3271 23.2667 83.3271 23.6583L82.25 23.4625C82.25 22.7771 82.4459 22.1896 82.9355 21.7979C83.2292 21.5042 83.7188 21.3083 84.3063 21.3083ZM89.1042 30.1208H89.8875C90.1813 30.1208 90.475 30.0229 90.6709 29.925C90.8667 29.8271 91.0625 29.7292 91.1605 29.5333C91.2584 29.3375 91.3563 29.1417 91.3563 28.9458C91.3563 28.75 91.4542 28.4563 91.4542 28.1625C91.4542 27.8688 91.4542 27.6729 91.4542 27.4771C91.4542 27.2813 91.3563 27.0854 91.2584 26.8896C91.1605 26.6938 90.9646 26.5958 90.7688 26.4979C90.573 26.4 90.2792 26.3021 89.9855 26.3021H89.1042V30.1208ZM89.1042 25.3229H89.8875C90.3771 25.3229 90.8667 25.4208 91.1605 25.5188C91.4542 25.6167 91.748 25.8125 91.9438 26.1063C92.1396 26.4 92.2375 26.6938 92.3355 26.9875C92.4334 27.3792 92.4334 27.6729 92.4334 28.1625C92.4334 28.6521 92.4334 29.0438 92.3355 29.4354C92.2375 29.8271 92.1396 30.1208 91.9438 30.4146C91.748 30.7083 91.4542 30.9042 91.1605 31.0021C90.8667 31.1 90.475 31.1979 89.8875 31.1979H87.9292V21.4063H92.0417V22.3854H89.1042V25.3229ZM93.6084 31.1979V21.4063H97.8188V22.3854H94.6855V25.7146H97.3292V26.7917H94.6855V30.2188H97.8188V31.1979H93.6084ZM98.798 31.1979V21.4063H99.875V25.7146H100.365C100.463 25.7146 100.658 25.7146 100.854 25.7146C101.05 25.7146 101.148 25.6167 101.344 25.5188C101.442 25.4208 101.638 25.3229 101.735 25.1271C101.833 24.9313 101.931 24.6375 102.029 24.3438L102.715 21.5042H103.694L103.008 24.3438C102.91 24.8333 102.715 25.225 102.519 25.5188C102.323 25.8125 102.029 26.0083 101.833 26.2042C102.225 26.3021 102.519 26.5958 102.715 26.8896C102.91 27.1833 103.106 27.6729 103.204 28.1625L103.89 31.2958H102.813L102.225 28.3583C102.127 28.0646 102.029 27.7708 101.931 27.575C101.833 27.3792 101.735 27.1833 101.54 27.0854C101.344 26.9875 101.246 26.8896 101.05 26.8896C100.854 26.8896 100.756 26.7917 100.56 26.7917H99.875V31.1979H98.798ZM108.296 24.2458L105.848 31.1H104.771V21.4063H105.848V28.2604H105.946L108.394 21.3083H109.471V31.1H108.394L108.296 24.2458ZM112.996 21.3083C113.779 21.3083 114.269 21.5042 114.66 21.8958C115.052 22.2875 115.15 22.875 115.15 23.5604L114.073 23.7563C114.073 23.3646 113.975 22.9729 113.877 22.6792C113.681 22.3854 113.388 22.2875 112.996 22.2875C112.8 22.2875 112.604 22.3854 112.408 22.4833C112.31 22.5813 112.115 22.6792 112.115 22.875C112.017 23.0708 112.017 23.1688 111.919 23.3646C111.919 23.5604 111.919 23.7563 111.919 23.8542V28.8479C111.919 28.9458 111.919 29.1417 111.919 29.3375C111.919 29.5333 112.017 29.6313 112.115 29.8271C112.213 29.925 112.31 30.1208 112.408 30.2188C112.506 30.3167 112.702 30.3167 112.996 30.3167C113.388 30.3167 113.681 30.2188 113.779 30.0229C113.975 29.8271 114.073 29.4354 114.073 28.9458L115.248 29.1417C115.248 29.8271 115.052 30.4146 114.66 30.8063C114.269 31.1979 113.779 31.3938 112.996 31.3938C112.213 31.3938 111.723 31.1979 111.331 30.8063C110.94 30.4146 110.744 29.8271 110.744 29.0438V24.1479C110.744 23.7563 110.744 23.4625 110.842 23.1688C110.94 22.875 111.038 22.5813 111.135 22.2875C111.331 21.9938 111.527 21.7979 111.821 21.7C112.115 21.3083 112.506 21.3083 112.996 21.3083ZM118.381 22.3854V31.1979H117.304V22.3854H115.542V21.4063H119.948V22.3854H118.381ZM125.04 28.5542C125.04 29.4354 124.844 30.1208 124.55 30.6104C124.158 31.1 123.669 31.2958 122.788 31.2958C122.004 31.2958 121.417 31.1 121.025 30.6104C120.633 30.1208 120.535 29.6313 120.535 28.8479V24.05C120.535 23.6583 120.535 23.3646 120.633 23.0708C120.731 22.7771 120.829 22.4833 120.927 22.1896C121.123 21.8958 121.319 21.7 121.613 21.6021C121.906 21.5042 122.298 21.4063 122.788 21.4063C123.277 21.4063 123.669 21.5042 123.963 21.6021C124.256 21.7 124.452 21.8958 124.648 22.1896C124.844 22.3854 124.942 22.6792 124.942 23.0708C125.04 23.3646 125.04 23.7563 125.04 24.1479V28.5542ZM123.865 23.8542C123.865 23.6583 123.865 23.4625 123.865 23.3646C123.865 23.1688 123.767 23.0708 123.669 22.875C123.571 22.7771 123.473 22.5813 123.277 22.4833C123.081 22.3854 122.885 22.2875 122.69 22.2875C122.396 22.2875 122.2 22.3854 122.004 22.4833C121.808 22.5813 121.71 22.7771 121.71 22.9729C121.613 23.1688 121.613 23.3646 121.613 23.5604C121.613 23.7563 121.613 23.9521 121.613 24.05V28.8479C121.613 28.9458 121.613 29.1417 121.613 29.3375C121.613 29.5333 121.71 29.6313 121.808 29.8271C121.906 29.925 122.004 30.1208 122.2 30.2188C122.298 30.3167 122.494 30.3167 122.788 30.3167C122.983 30.3167 123.179 30.3167 123.375 30.2188C123.571 30.1208 123.669 30.0229 123.767 29.8271C123.865 29.7292 123.865 29.5333 123.963 29.3375C123.963 29.1417 124.06 28.9458 124.06 28.75V23.8542H123.865ZM129.838 31.1979V26.6938H127.585V31.1979H126.508V21.4063H127.585V25.7146H129.838V21.4063H130.915V31.1979H129.838ZM137.181 21.4063C137.671 21.4063 138.063 21.5042 138.454 21.6021C138.748 21.7 139.042 21.8958 139.238 22.1896C139.433 22.4833 139.531 22.7771 139.629 23.0708C139.727 23.4625 139.727 23.8542 139.727 24.3438C139.727 24.7354 139.727 25.1271 139.629 25.5188C139.531 25.9104 139.433 26.2042 139.238 26.4979C139.042 26.7917 138.748 26.9875 138.454 27.0854C138.16 27.2813 137.671 27.2813 137.181 27.2813H136.398V31.1979H135.321V21.4063H137.181ZM136.3 26.2042H137.083C137.377 26.2042 137.671 26.1063 137.867 26.0083C138.063 25.9104 138.258 25.8125 138.356 25.6167C138.454 25.4208 138.552 25.225 138.552 25.0292C138.552 24.8333 138.552 24.5396 138.552 24.3438C138.552 24.05 138.552 23.8542 138.454 23.5604C138.454 23.3646 138.356 23.0708 138.258 22.9729C138.16 22.7771 137.965 22.6792 137.769 22.5813C137.573 22.4833 137.279 22.3854 136.985 22.3854H136.202V26.2042H136.3ZM140.804 31.1979V21.4063H145.015V22.3854H141.881V25.7146H144.525V26.7917H141.881V30.2188H145.015V31.1979H140.804ZM148.05 21.3083C148.833 21.3083 149.323 21.5042 149.715 21.8958C150.106 22.2875 150.204 22.875 150.204 23.5604L149.127 23.7563C149.127 23.3646 149.029 22.9729 148.931 22.6792C148.735 22.3854 148.442 22.2875 148.05 22.2875C147.854 22.2875 147.658 22.3854 147.463 22.4833C147.365 22.5813 147.169 22.6792 147.169 22.875C147.071 23.0708 147.071 23.1688 146.973 23.3646C146.973 23.5604 146.973 23.7563 146.973 23.8542V28.8479C146.973 28.9458 146.973 29.1417 146.973 29.3375C146.973 29.5333 147.071 29.6313 147.169 29.8271C147.267 29.925 147.365 30.1208 147.463 30.2188C147.56 30.3167 147.756 30.3167 148.05 30.3167C148.442 30.3167 148.735 30.2188 148.833 30.0229C149.029 29.8271 149.127 29.4354 149.127 28.9458L150.302 29.1417C150.302 29.8271 150.106 30.4146 149.715 30.8063C149.323 31.1979 148.833 31.3938 148.05 31.3938C147.267 31.3938 146.777 31.1979 146.385 30.8063C145.994 30.4146 145.798 29.8271 145.798 29.0438V24.1479C145.798 23.7563 145.798 23.4625 145.896 23.1688C145.994 22.875 146.092 22.5813 146.19 22.2875C146.385 21.9938 146.581 21.7979 146.875 21.7C147.267 21.3083 147.56 21.3083 148.05 21.3083ZM154.61 31.1979V22.3854H152.456V31.1979H151.379V21.4063H155.688V31.1979H154.61ZM159.115 26.8896L160.388 21.4063H161.465L159.506 28.9458C159.408 29.5333 159.213 29.925 159.017 30.2188C158.821 30.5125 158.723 30.8063 158.527 30.9042C158.331 31.1 158.135 31.1979 158.038 31.1979C157.842 31.1979 157.646 31.2958 157.45 31.2958H156.96V30.4146H157.45C157.646 30.4146 157.842 30.3167 158.038 30.1208C158.233 29.925 158.331 29.6313 158.429 29.1417L158.625 28.5542L156.471 21.3083H157.548L159.115 26.8896ZM163.423 30.1208H164.206C164.5 30.1208 164.794 30.0229 164.99 29.925C165.185 29.8271 165.381 29.7292 165.479 29.5333C165.577 29.3375 165.675 29.1417 165.675 28.9458C165.675 28.75 165.773 28.4563 165.773 28.1625C165.773 27.8688 165.773 27.6729 165.773 27.4771C165.773 27.2813 165.675 27.0854 165.577 26.8896C165.479 26.6938 165.283 26.5958 165.088 26.4979C164.892 26.4 164.598 26.3021 164.304 26.3021H163.521V30.1208H163.423ZM163.423 25.3229H164.206C164.696 25.3229 165.185 25.4208 165.479 25.5188C165.773 25.6167 166.067 25.8125 166.263 26.1063C166.458 26.4 166.556 26.6938 166.654 26.9875C166.752 27.3792 166.752 27.6729 166.752 28.1625C166.752 28.6521 166.752 29.0438 166.654 29.4354C166.556 29.8271 166.458 30.1208 166.263 30.4146C166.067 30.7083 165.773 30.9042 165.479 31.0021C165.185 31.1 164.794 31.1979 164.206 31.1979H162.248V21.4063H166.263V22.3854H163.423V25.3229ZM169.396 26.2042C169.396 27.0854 169.396 27.8688 169.298 28.4563C169.2 29.0438 169.102 29.5333 169.004 29.925C168.906 30.3167 168.71 30.6104 168.417 30.8063C168.221 31.0021 167.927 31.1979 167.535 31.3938L167.046 30.6104C167.242 30.4146 167.438 30.3167 167.633 30.1208C167.829 29.925 167.927 29.7292 168.025 29.5333C168.123 29.2396 168.221 28.9458 168.319 28.5542C168.417 28.1625 168.417 27.6729 168.417 27.0854V21.4063H172.529V31.1979H171.452V22.3854H169.494V26.2042H169.396ZM177.523 24.2458L175.075 31.1H173.998V21.4063H175.075V28.2604H175.173L177.621 21.3083H178.698V31.1H177.621L177.523 24.2458ZM180.069 31.1979V21.4063H181.146V25.7146H181.635C181.733 25.7146 181.929 25.7146 182.125 25.7146C182.321 25.7146 182.419 25.6167 182.615 25.5188C182.713 25.4208 182.908 25.3229 183.006 25.1271C183.104 24.9313 183.202 24.6375 183.3 24.3438L183.985 21.5042H184.965L184.279 24.3438C184.181 24.8333 183.985 25.225 183.79 25.5188C183.594 25.8125 183.3 26.0083 183.104 26.2042C183.496 26.3021 183.79 26.5958 183.985 26.8896C184.181 27.1833 184.377 27.6729 184.475 28.1625L185.16 31.2958H184.083L183.496 28.3583C183.398 28.0646 183.3 27.7708 183.202 27.575C183.104 27.3792 183.006 27.1833 182.81 27.0854C182.615 26.9875 182.517 26.8896 182.321 26.8896C182.125 26.8896 182.027 26.7917 181.831 26.7917H181.146V31.1979H180.069ZM189.665 31.1979L189.175 29.0438H187.021L186.629 31.1979H185.552L187.608 21.4063H188.685L190.84 31.1979H189.665ZM188.098 23.3646L187.706 25.6167L187.217 27.8688H188.979L188.49 25.5188L188.098 23.3646ZM193.777 21.3083C194.56 21.3083 195.05 21.5042 195.442 21.8958C195.833 22.2875 195.931 22.875 195.931 23.5604L194.854 23.7563C194.854 23.3646 194.756 22.9729 194.658 22.6792C194.463 22.3854 194.169 22.2875 193.777 22.2875C193.581 22.2875 193.385 22.3854 193.19 22.4833C193.092 22.5813 192.896 22.6792 192.896 22.875C192.798 23.0708 192.798 23.1688 192.7 23.3646C192.7 23.5604 192.7 23.7563 192.7 23.8542V28.8479C192.7 28.9458 192.7 29.1417 192.7 29.3375C192.7 29.5333 192.798 29.6313 192.896 29.8271C192.994 29.925 193.092 30.1208 193.19 30.2188C193.288 30.3167 193.483 30.3167 193.777 30.3167C194.169 30.3167 194.463 30.2188 194.56 30.0229C194.756 29.8271 194.854 29.4354 194.854 28.9458L196.029 29.1417C196.029 29.8271 195.833 30.4146 195.442 30.8063C195.05 31.1979 194.56 31.3938 193.777 31.3938C192.994 31.3938 192.504 31.1979 192.113 30.8063C191.721 30.4146 191.525 29.8271 191.525 29.0438V24.1479C191.525 23.7563 191.525 23.4625 191.623 23.1688C191.721 22.875 191.819 22.5813 191.917 22.2875C192.113 21.9938 192.308 21.7979 192.602 21.7C192.896 21.3083 193.288 21.3083 193.777 21.3083ZM200.533 24.2458L198.085 31.1H197.008V21.4063H198.085V28.2604H198.183L200.631 21.3083H201.708V31.1H200.631L200.533 24.2458Z" fill="white"/>
<path fill-rule="evenodd" clip-rule="evenodd" d="M78.6271 46.7667H79.3125C79.4105 46.7667 79.5084 46.7667 79.5084 46.6688C79.998 46.6688 80.2917 46.4729 80.4875 46.0813C80.6834 45.7875 80.6834 45.2979 80.6834 44.8083C80.6834 44.2208 80.5855 43.7313 80.3896 43.4375C80.1938 43.1438 79.8021 43.0458 79.2146 43.0458H78.6271V46.7667V46.7667ZM169.885 50.3896H168.221V48.3333H167.633L166.36 44.4167L165.088 48.3333H163.129L165.479 42.3604C165.088 41.4792 164.794 40.5979 164.402 39.6188C164.01 38.7375 163.717 37.8563 163.325 36.8771H165.283C165.479 37.4646 165.675 38.0521 165.871 38.5417C166.067 39.1292 166.263 39.7167 166.458 40.2063H166.556L167.438 37.0729H169.396L167.144 42.4583C167.535 43.4375 167.927 44.4167 168.319 45.3958C168.515 45.8854 168.71 46.4729 168.906 46.9625H169.69V50.3896H169.885ZM78.6271 41.4792H79.4105C79.998 41.4792 80.4875 41.5771 80.8792 41.675C81.2709 41.8708 81.5646 42.0667 81.7605 42.3604C81.9563 42.6542 82.1521 43.0458 82.25 43.4375C82.348 43.8292 82.4459 44.3188 82.4459 44.9063C82.4459 46.0813 82.1521 46.9625 81.6625 47.55C81.173 48.1375 80.3896 48.4313 79.4105 48.4313H76.8646V37.0729H81.8584V38.7375H78.6271V41.4792V41.4792ZM87.7334 48.4313L87.3417 46.0813H85.1875C85.0896 46.4729 84.9917 46.8646 84.9917 47.2563C84.8938 47.6479 84.8938 48.0396 84.7959 48.4313H83.0334C83.425 46.5708 83.8167 44.6125 84.2084 42.7521C84.6 40.8917 84.9917 38.9333 85.3834 37.0729H87.3417L89.6917 48.4313H87.7334V48.4313ZM86.1667 39.7167C86.0688 40.5 85.9709 41.2833 85.775 42.0667C85.6771 42.85 85.4813 43.6333 85.3834 44.4167H86.95L86.1667 39.7167ZM94.2938 48.4313V43.4375H92.2375V48.4313H90.475V37.0729H92.2375V41.8708H94.2938V37.0729H96.0563V48.4313H94.2938ZM98.5042 48.4313V50.5854H97.0355V46.9625L97.7209 46.7667C98.0146 46.4729 98.2105 46.0813 98.3084 45.5917C98.4063 45.2 98.5042 44.6125 98.5042 43.9271L98.7 36.975H103.792V46.7667H104.477V50.4875H103.008V48.3333H98.5042V48.4313ZM100.071 43.9271C100.071 44.6125 99.973 45.1021 99.973 45.5917C99.875 46.0813 99.7771 46.4729 99.5813 46.7667H102.029V38.6396H100.169L100.071 43.9271ZM111.331 37.0729V48.4313H109.569V38.7375H107.806V43.1438C107.806 44.025 107.806 44.8083 107.708 45.4938C107.61 46.0813 107.513 46.6688 107.317 47.0604C107.121 47.4521 106.925 47.8438 106.631 48.1375C106.338 48.4313 105.946 48.6271 105.456 48.8229L104.771 47.55C105.065 47.3542 105.26 47.1583 105.456 47.0604C105.652 46.8646 105.75 46.6688 105.848 46.375C105.946 46.0813 106.044 45.7875 106.044 45.2979C106.044 44.9063 106.142 44.4167 106.142 43.7313V37.0729H111.331ZM117.01 41.2833L114.66 48.4313H112.996V37.0729H114.758V44.3188H114.856L117.206 37.0729H118.969V48.4313H117.206L117.01 41.2833ZM120.438 48.4313V37.0729H122.2V41.8708H122.592C122.983 41.8708 123.277 41.7729 123.571 41.4792C123.865 41.2833 124.06 40.7938 124.158 40.2063C124.158 40.1083 124.256 39.9125 124.256 39.6188C124.354 39.325 124.354 38.9333 124.452 38.6396C124.55 38.2479 124.55 37.9542 124.648 37.6604C124.746 37.3667 124.746 37.1708 124.746 37.0729H126.41C126.313 37.6604 126.215 38.2479 126.019 38.7375C125.921 39.325 125.823 39.8146 125.627 40.4021C125.529 40.9896 125.333 41.3813 125.04 41.7729C124.746 42.1646 124.55 42.3604 124.158 42.4583C124.55 42.6542 124.942 42.85 125.138 43.2417C125.333 43.5354 125.529 44.025 125.627 44.6125C125.725 45.2979 125.921 45.8854 126.019 46.4729C126.117 47.0604 126.313 47.7458 126.41 48.3333H124.648C124.55 47.7458 124.452 47.2563 124.354 46.6688C124.256 46.0813 124.158 45.5917 123.963 45.0042C123.865 44.4167 123.669 43.9271 123.375 43.7313C123.081 43.5354 122.788 43.3396 122.396 43.3396H121.906V48.3333H120.438V48.4313ZM134.635 40.2063C134.635 39.7167 134.538 39.325 134.342 39.0313C134.146 38.8354 133.754 38.7375 133.265 38.7375H132.677V41.675H133.265C133.754 41.675 134.048 41.5771 134.244 41.2833C134.538 40.9896 134.635 40.5979 134.635 40.2063ZM134.733 44.8083C134.733 44.3188 134.635 43.8292 134.44 43.6333C134.244 43.3396 133.852 43.2417 133.363 43.2417H132.677V46.7667H133.363C133.656 46.7667 133.852 46.6688 134.048 46.5708C134.244 46.4729 134.342 46.375 134.44 46.1792C134.538 45.9833 134.635 45.7875 134.635 45.5917C134.733 45.2979 134.733 45.1021 134.733 44.8083ZM135.125 42.4583C135.615 42.6542 136.006 42.9479 136.202 43.4375C136.398 43.9271 136.496 44.4167 136.496 45.0042C136.496 46.1792 136.202 47.0604 135.713 47.6479C135.223 48.2354 134.44 48.5292 133.363 48.5292H131.013V37.0729H133.46C134.44 37.0729 135.223 37.3667 135.615 37.8563C136.104 38.3458 136.3 39.1292 136.3 40.1083C136.3 40.5979 136.202 41.0875 136.006 41.4792C135.908 41.8708 135.517 42.1646 135.125 42.4583ZM142.077 48.4313L141.588 46.0813H139.531C139.433 46.4729 139.335 46.8646 139.335 47.2563C139.238 47.6479 139.238 48.0396 139.14 48.4313H137.377C137.769 46.5708 138.16 44.6125 138.552 42.7521C138.944 40.8917 139.335 38.9333 139.727 37.0729H141.685L144.035 48.4313H142.077V48.4313ZM140.51 39.7167C140.413 40.5 140.315 41.2833 140.119 42.0667C140.021 42.85 139.825 43.6333 139.727 44.4167H141.294L140.51 39.7167ZM151.575 45.8854L150.792 43.7313L150.106 41.7729H150.008V48.3333H148.246V37.0729H150.008L151.281 40.3042L152.163 42.7521H152.26L153.142 40.2063L154.415 37.0729H156.079V48.4313H154.317V41.8708H154.219L153.533 43.9271L152.75 45.9833H151.575V45.8854ZM157.548 48.4313V37.0729H162.64V38.7375H159.31V41.8708H162.15V43.5354H159.31V46.8646H162.64V48.5292H157.548V48.4313ZM174.292 48.4313V43.4375H172.333V48.4313H170.571V37.0729H172.333V41.8708H174.39V37.0729H176.152V48.4313H174.292ZM181.831 48.4313L181.342 46.0813H179.285C179.188 46.4729 179.09 46.8646 179.09 47.2563C178.992 47.6479 178.992 48.0396 178.894 48.4313H177.131C177.523 46.5708 177.915 44.6125 178.306 42.7521C178.698 40.8917 179.09 38.9333 179.481 37.0729H181.44L183.79 48.4313H181.831V48.4313ZM180.363 39.7167C180.265 40.5 180.167 41.2833 179.971 42.0667C179.873 42.85 179.677 43.6333 179.579 44.4167H181.146L180.363 39.7167ZM187.021 38.7375H188.881V37.0729H183.496V38.7375H185.356V48.4313H187.119V38.7375H187.021ZM196.421 45.8854L195.638 43.7313L194.952 41.7729H194.854V48.3333H193.092V37.0729H194.854L196.127 40.3042L197.008 42.7521H197.106L197.988 40.2063L199.26 37.0729H200.925V48.4313H199.163V41.8708H199.065L198.379 43.9271L197.596 45.9833H196.421V45.8854ZM204.842 42.9479L206.213 37.0729H207.877L205.625 45.8854C205.429 46.4729 205.331 46.9625 205.135 47.3542C204.94 47.7458 204.744 47.9417 204.548 48.1375C204.352 48.3333 204.156 48.4313 203.863 48.5292C203.667 48.6271 203.373 48.6271 203.079 48.6271H202.394V47.1583H202.785C203.079 47.1583 203.275 47.0604 203.471 46.8646C203.667 46.6688 203.765 46.375 203.863 45.9833C203.863 45.9833 203.863 45.9833 203.863 45.8854C203.863 45.7875 203.863 45.7875 203.863 45.6896C203.863 45.5917 203.863 45.5917 203.96 45.4938C203.96 45.3958 203.96 45.3958 203.96 45.3958L201.708 37.0729H203.471L204.842 42.9479ZM212.577 48.4313V43.4375H210.521V48.4313H208.758V37.0729H210.521V41.8708H212.577V37.0729H214.34V48.4313H212.577ZM219.627 39.8146C219.627 39.5208 219.529 39.2271 219.431 38.9333C219.333 38.6396 219.04 38.5417 218.648 38.5417C218.452 38.5417 218.256 38.5417 218.158 38.6396C218.06 38.7375 217.963 38.8354 217.865 39.0313C217.767 39.1292 217.767 39.325 217.669 39.5208C217.669 39.7167 217.669 39.8146 217.669 40.0104V45.6896C217.669 45.9833 217.767 46.2771 217.865 46.4729C218.06 46.6688 218.256 46.8646 218.648 46.8646C219.04 46.8646 219.235 46.7667 219.431 46.4729C219.627 46.1792 219.627 45.8854 219.627 45.5917V39.8146ZM221.39 45.4938C221.39 46.4729 221.194 47.2563 220.704 47.7458C220.215 48.2354 219.529 48.5292 218.648 48.5292C217.669 48.5292 216.983 48.3333 216.592 47.8438C216.2 47.3542 215.906 46.6688 215.906 45.7875V40.0104C215.906 39.5208 216.004 39.1292 216.102 38.7375C216.2 38.3458 216.396 38.0521 216.592 37.7583C216.788 37.4646 217.081 37.2688 217.473 37.1708C217.865 36.975 218.256 36.975 218.746 36.975C219.235 36.975 219.725 37.0729 220.019 37.1708C220.41 37.2688 220.606 37.4646 220.9 37.7583C221.096 38.0521 221.292 38.3458 221.39 38.7375C221.488 39.1292 221.488 39.5208 221.488 40.0104V45.4938H221.39ZM225.698 36.975C226.188 36.975 226.579 37.0729 226.873 37.1708C227.167 37.2688 227.46 37.4646 227.754 37.7583C227.95 37.9542 228.146 38.2479 228.244 38.5417C228.342 38.8354 228.44 39.2271 228.44 39.6188L226.677 40.1083C226.677 39.7167 226.579 39.325 226.481 39.1292C226.285 38.8354 226.09 38.7375 225.698 38.7375C225.502 38.7375 225.306 38.7375 225.208 38.8354C225.11 38.9333 225.013 39.0313 224.915 39.1292C224.817 39.2271 224.817 39.4229 224.817 39.6188C224.817 39.8146 224.817 39.9125 224.817 40.1083V45.8854C224.817 45.9833 224.817 46.0813 224.817 46.2771C224.817 46.375 224.915 46.5708 224.915 46.6688C225.013 46.7667 225.11 46.8646 225.208 46.9625C225.306 47.0604 225.502 47.0604 225.698 47.0604C226.383 47.0604 226.677 46.5708 226.677 45.6896C226.971 45.7875 227.265 45.7875 227.558 45.7875C227.852 45.7875 228.146 45.8854 228.44 45.8854C228.44 46.7667 228.146 47.4521 227.754 47.9417C227.265 48.4313 226.677 48.725 225.796 48.725C224.817 48.725 224.131 48.5292 223.74 48.0396C223.25 47.55 223.054 46.8646 223.054 45.9833V40.0104C223.054 39.6188 223.054 39.2271 223.152 38.8354C223.25 38.4438 223.446 38.15 223.642 37.8563C223.838 37.5625 224.131 37.3667 224.523 37.1708C224.719 37.0729 225.208 36.975 225.698 36.975ZM233.727 48.4313L233.238 46.0813H231.181C231.083 46.4729 230.985 46.8646 230.985 47.2563C230.888 47.6479 230.888 48.0396 230.79 48.4313H229.027C229.419 46.5708 229.81 44.6125 230.202 42.7521C230.594 40.8917 230.985 38.9333 231.377 37.0729H233.335L235.685 48.4313H233.727V48.4313ZM232.16 39.7167C232.063 40.5 231.965 41.2833 231.769 42.0667C231.671 42.85 231.475 43.6333 231.377 44.4167H232.944L232.16 39.7167ZM238.329 46.7667H239.015C239.113 46.7667 239.21 46.7667 239.21 46.6688C239.7 46.6688 239.994 46.4729 240.19 46.0813C240.385 45.7875 240.385 45.2979 240.385 44.8083C240.385 44.2208 240.288 43.7313 240.092 43.4375C239.896 43.1438 239.504 43.0458 238.917 43.0458H238.329V46.7667V46.7667ZM238.329 41.4792H239.113C239.7 41.4792 240.19 41.5771 240.581 41.675C240.973 41.8708 241.267 42.0667 241.463 42.3604C241.658 42.6542 241.854 43.0458 241.952 43.4375C242.05 43.8292 242.05 44.3188 242.05 44.9063C242.05 46.0813 241.756 46.9625 241.267 47.55C240.777 48.1375 239.994 48.4313 239.015 48.4313H236.469V37.0729H241.463V38.7375H238.231V41.4792H238.329ZM247.338 48.4313L246.848 46.0813H244.792C244.694 46.4729 244.596 46.8646 244.596 47.2563C244.498 47.6479 244.498 48.0396 244.4 48.4313H242.638C243.029 46.5708 243.421 44.6125 243.813 42.7521C244.204 40.8917 244.596 38.9333 244.988 37.0729H246.946L249.296 48.4313H247.338V48.4313ZM245.869 39.7167C245.771 40.5 245.673 41.2833 245.477 42.0667C245.379 42.85 245.183 43.6333 245.085 44.4167H246.652L245.869 39.7167ZM252.429 38.7375H254.29V37.0729H248.904V38.7375H250.765V48.4313H252.527V38.7375H252.429ZM260.948 37.0729V48.4313H259.185V38.7375H257.423V43.1438C257.423 44.025 257.423 44.8083 257.325 45.4938C257.227 46.0813 257.129 46.6688 256.933 47.0604C256.738 47.4521 256.542 47.8438 256.248 48.1375C255.954 48.4313 255.563 48.6271 255.073 48.8229L254.388 47.55C254.681 47.3542 254.877 47.1583 255.073 47.0604C255.269 46.8646 255.367 46.6688 255.465 46.375C255.563 46.0813 255.66 45.7875 255.66 45.2979C255.66 44.9063 255.758 44.4167 255.758 43.7313V37.0729H260.948ZM266.725 48.4313L266.333 46.0813H264.277C264.179 46.4729 264.081 46.8646 264.081 47.2563C263.983 47.6479 263.983 48.0396 263.885 48.4313H262.123C262.515 46.5708 262.906 44.6125 263.298 42.7521C263.69 40.8917 264.081 38.9333 264.473 37.0729H266.431L268.781 48.4313H266.725V48.4313ZM265.158 39.7167C265.06 40.5 264.963 41.2833 264.767 42.0667C264.669 42.85 264.473 43.6333 264.375 44.4167H265.942L265.158 39.7167ZM272.013 37.0729C273.09 37.0729 273.775 37.3667 274.265 37.8563C274.754 38.4438 274.95 39.325 274.95 40.5C274.95 40.9896 274.852 41.4792 274.754 41.9688C274.656 42.3604 274.46 42.7521 274.265 43.0458C274.069 43.3396 273.677 43.6333 273.285 43.7313C272.894 43.9271 272.404 44.025 271.817 44.025H271.229V48.4313H269.467V37.0729H272.013ZM271.229 38.7375V42.4583H271.817C272.404 42.4583 272.698 42.2625 272.992 41.9688C273.188 41.675 273.285 41.1854 273.285 40.5979C273.285 40.0104 273.188 39.6188 272.992 39.325C272.796 39.0313 272.404 38.8354 271.915 38.8354H271.229V38.7375ZM280.238 41.2833L277.888 48.4313H276.125V37.0729H277.888V44.3188H277.985L280.335 37.0729H282.098V48.4313H280.335L280.238 41.2833Z" fill="white"/>
<path fill-rule="evenodd" clip-rule="evenodd" d="M80.1938 58.9083C80.5855 59.0063 80.8792 59.3 81.075 59.6917C81.2709 60.0833 81.2709 60.5729 81.2709 61.1604C81.2709 62.1396 81.075 62.9229 80.6834 63.4125C80.2917 63.9021 79.6063 64.0979 78.725 64.0979H76.8646V54.3063H78.9209C79.8021 54.3063 80.3896 54.5021 80.6834 54.9917C81.075 55.4813 81.173 56.0688 81.173 56.95C81.173 57.4396 81.075 57.8313 80.9771 58.2229C80.8792 58.4188 80.5855 58.7125 80.1938 58.9083ZM80.2917 61.0625C80.2917 60.5729 80.1938 60.0833 79.998 59.7896C79.8021 59.4958 79.4105 59.3979 78.823 59.3979H78.0396V63.1188H78.9209C79.2146 63.1188 79.5084 63.0208 79.7042 62.9229C79.9 62.825 79.998 62.6292 80.0959 62.5313C80.1938 62.3354 80.2917 62.1396 80.2917 61.9438C80.2917 61.65 80.2917 61.3563 80.2917 61.0625ZM80.1938 56.8521C80.1938 56.3625 80.0959 55.9708 79.9 55.6771C79.7042 55.3833 79.3125 55.2854 78.823 55.2854H78.0396V58.4188H78.823C79.3125 58.4188 79.7042 58.3208 79.9 58.0271C80.0959 57.7333 80.1938 57.3417 80.1938 56.8521ZM86.2646 64.0979L85.775 61.9438H83.6209L83.2292 64.0979H82.1521L84.2084 54.3063H85.2855L87.4396 64.0979H86.2646ZM84.698 56.2646L84.3063 58.6146L83.8167 60.8667H85.5792L85.1875 58.5167L84.698 56.2646ZM89.8875 54.2083C90.2792 54.2083 90.573 54.2083 90.8667 54.3063C91.1605 54.4042 91.3563 54.5021 91.5521 54.6979C91.748 54.8938 91.9438 55.1875 92.0417 55.4813C92.1396 55.775 92.2375 56.2646 92.2375 56.7542C92.2375 56.95 92.2375 57.1458 92.2375 57.3417C92.2375 57.5375 92.1396 57.7333 92.1396 58.0271C92.0417 58.2229 91.9438 58.4188 91.8459 58.6146C91.748 58.8104 91.5521 58.9083 91.4542 59.0063C91.65 59.1042 91.8459 59.3 91.9438 59.3979C92.0417 59.5938 92.1396 59.7896 92.2375 59.9854C92.3355 60.1813 92.3355 60.3771 92.3355 60.5729C92.3355 60.7688 92.3355 60.9646 92.3355 61.2583C92.3355 62.2375 92.1396 62.9229 91.8459 63.4125C91.4542 63.9021 90.8667 64.1958 90.0834 64.1958C89.7896 64.1958 89.4959 64.1958 89.2021 64.0979C88.9084 64 88.7125 63.9021 88.5167 63.7063C88.3209 63.5104 88.125 63.3146 88.0271 63.0208C87.9292 62.7271 87.9292 62.4333 87.9292 62.0417L89.0063 61.8458C89.0063 62.3354 89.1042 62.7271 89.3 62.9229C89.4959 63.1188 89.7896 63.2167 90.1813 63.2167C90.3771 63.2167 90.475 63.2167 90.573 63.1188C90.6709 63.0208 90.8667 62.9229 90.9646 62.825C91.0625 62.7271 91.1605 62.5313 91.1605 62.2375C91.2584 62.0417 91.2584 61.65 91.2584 61.2583C91.2584 61.0625 91.2584 60.7688 91.1605 60.5729C91.1605 60.3771 91.0625 60.1813 90.9646 59.9854C90.8667 59.7896 90.7688 59.6917 90.6709 59.5938C90.573 59.4958 90.3771 59.4958 90.1813 59.4958H89.5938V58.5167H90.2792C90.475 58.5167 90.6709 58.5167 90.7688 58.4188C90.8667 58.3208 91.0625 58.2229 91.0625 58.0271C91.1605 57.8313 91.1605 57.6354 91.2584 57.4396C91.2584 57.2438 91.3563 56.95 91.3563 56.7542C91.3563 56.4604 91.3563 56.1667 91.2584 55.9708C91.1605 55.775 91.1605 55.5792 90.9646 55.4813C90.8667 55.3833 90.7688 55.2854 90.573 55.2854C90.475 55.2854 90.2792 55.1875 90.0834 55.1875C89.6917 55.1875 89.398 55.2854 89.2021 55.5792C89.0063 55.8729 88.9084 56.1667 88.9084 56.5583L87.8313 56.3625C87.8313 55.6771 88.0271 55.0896 88.5167 54.6979C88.8105 54.4042 89.3 54.2083 89.8875 54.2083ZM97.1334 57.1458L94.6855 64H93.6084V54.2083H94.6855V61.1604H94.7834L97.2313 54.2083H98.3084V64H97.2313L97.1334 57.1458ZM101.735 54.3063C102.225 54.3063 102.617 54.4042 103.008 54.5021C103.302 54.6 103.596 54.7958 103.792 55.0896C103.988 55.3833 104.085 55.6771 104.183 55.9708C104.281 56.3625 104.281 56.7542 104.281 57.2438C104.281 57.6354 104.281 58.0271 104.183 58.4188C104.085 58.8104 103.988 59.1042 103.792 59.3979C103.596 59.6917 103.302 59.8875 103.008 59.9854C102.715 60.1813 102.225 60.1813 101.735 60.1813H100.854V64.0979H99.7771V54.3063H101.735V54.3063ZM100.854 59.1042H101.638C101.931 59.1042 102.225 59.0063 102.421 58.9083C102.617 58.8104 102.813 58.7125 102.91 58.5167C103.008 58.3208 103.106 58.125 103.106 57.9292C103.106 57.7333 103.106 57.4396 103.106 57.2438C103.106 56.95 103.106 56.7542 103.008 56.4604C103.008 56.2646 102.91 55.9708 102.813 55.8729C102.715 55.6771 102.519 55.5792 102.323 55.4813C102.127 55.3833 101.833 55.2854 101.54 55.2854H100.854V59.1042ZM106.827 59.2021C106.827 60.0833 106.827 60.8667 106.729 61.4542C106.631 62.0417 106.533 62.5313 106.435 62.9229C106.338 63.3146 106.142 63.6083 105.848 63.8042C105.652 64 105.358 64.1958 104.967 64.3917L104.477 63.6083C104.673 63.4125 104.869 63.3146 105.065 63.1188C105.26 62.9229 105.358 62.7271 105.456 62.5313C105.554 62.2375 105.652 61.9438 105.75 61.5521C105.848 61.1604 105.848 60.6708 105.848 60.0833V54.3063H109.96V64.0979H108.883V55.2854H106.925V59.2021H106.827ZM114.856 57.1458L112.408 64H111.331V54.2083H112.408V61.1604H112.506L114.954 54.2083H116.031V64H114.954L114.856 57.1458ZM118.577 55.2854V64.0979H117.5V54.3063H121.515V55.3833H118.577V55.2854ZM126.019 57.1458L123.571 64H122.494V54.2083H123.571V61.1604H123.669L126.117 54.2083H127.194V64H126.117L126.019 57.1458Z" fill="white"/>
</g>
<defs>
<clipPath id="clip0">
<rect width="282" height="81" fill="white"/>
</clipPath>
</defs>
</svg>
